<?xml version="1.0" encoding="UTF-8"?><svg id="Layer_2" data-name="Layer 2" xmlns="http://www.w3.org/2000/svg" viewBox="0 0 123.95 168.86"><defs><style> .cls-1 { fill: #494949; } </style></defs><g id="Layer_1-2" data-name="Layer 1"><g><g><path class="cls-1" d="M75.78,101.4c-1.12,5.83-3.55,14.23-8.78,22.27-.03.05-.09.09-.15.09-1.61.13-3.23.19-4.88.19C27.75,123.95,0,96.2,0,61.97,0,40.33,11.09,21.29,27.89,10.21c.11-.07.27-.02.3.12l3.13,11.89c.14.52,3.47,12.87,14.59,28.49,4.69,6.59,10.71,11.07,16.02,15.03,6.72,5.01,12.51,9.34,14.25,16.51.89,3.67,1.25,10.64-.4,19.16Z"/><path class="cls-1" d="M78.34,37.48c.29,5.69-4.38,10.36-10.07,10.07-4.87-.25-8.82-4.2-9.07-9.07-.29-5.69,4.38-10.36,10.06-10.07,4.87.25,8.83,4.2,9.08,9.07Z"/><path class="cls-1" d="M81.02,39.9c-.18.54-.55,1.33-.82,1.87-.04.08-.16.04-.14-.05.27-1.1.63-2.19.64-4.69,0-3.04-1.61-5.75-3.7-7.73-1.94-1.84-4.48-3.04-7.29-3.25-7.01-.53-12.88,5.02-12.88,11.92,0,2.76.94,5.3,2.51,7.33.29.37-.13.88-.55.65-3.74-2.03-8.11-5.47-12.99-11.15-6.09-7.08-10.06-14.28-10.1-14.35l-5.97-10.93c-.11-.21-.04-.46.16-.59C39.24,3.27,50.23,0,61.97,0c3.22,0,6.38.24,9.47.72.14.02.26.11.32.24l3.07,6.01c.04.09,1.84,3.65,3.63,8.68,2.52,7.08,5.01,17.04,2.56,24.26Z"/><path class="cls-1" d="M123.95,61.97c0,23.61-13.2,44.13-32.62,54.59-.16.09-.34-.08-.28-.25,1.22-3.07,2.18-6.08,2.88-9.01,1.28-5.4,1.68-10.55,1.18-15.32,0-.03,0-.05,0-.08-.49-4.38-.5-8.79-.07-13.18.5-5.06.61-10.26.35-15.65l-.02-.45c-.78-16.42-1.95-41.24-16.61-58.28l-1.86-2.16c-.13-.15.01-.37.2-.32,26.92,6.74,46.86,31.1,46.86,60.11Z"/><path class="cls-1" d="M87.59,118.42h0c-1.15,2.59-2.53,5.31-4.17,8.16-.06.11-.23.06-.22-.07.11-.99.33-3.23.43-6.45.05-1.41.07-3.01.05-4.77h0c.87-1.39,1.7-2.91,2.46-4.55,2.77-5.96,4.91-11.89,6.44-17.93.03-.13.21-.11.23.02.54,6.19-.36,14.72-5.21,25.6Z"/><path class="cls-1" d="M92.28,81.74c-.1.73-.2,1.46-.32,2.19h0c-.13.8-.26,1.6-.41,2.4-1.45,7.85-3.92,15.56-7.57,23.4-.14.31-.29.61-.44.92-.36.72-.73,1.41-1.11,2.08-.37.65-.75,1.27-1.15,1.87-2.3,3.55-4.86,6.21-7.15,8.14-2.61,2.21-4.85,3.46-5.92,4.01-.18.09-.37-.12-.25-.29.69-.99,1.35-2,1.97-3.03,9.23-15.23,10.57-33.32,8.54-41.76-3.41-14.13-20.31-17.87-30.64-32.36-8.6-12.07-12.45-22.2-13.72-26.05-.07-.22.24-.37.36-.16,3.57,6,17.7,27.9,33.63,27.9,2.48,0,5.01-.53,7.55-1.74,16.53-7.87,5.06-35.3,1.99-41.93-.1-.21.19-.39.33-.21,13.28,16.54,14.28,40.13,15.03,56.05.3,6.37.08,12.52-.73,18.56Z"/></g><g><g><path class="cls-1" d="M34.2,145.75c-1.6,0-2.92-.53-3.96-1.59-1.04-1.06-1.56-2.37-1.56-3.93s.52-2.88,1.56-3.94c1.04-1.06,2.36-1.59,3.96-1.59.96,0,1.85.23,2.66.68.81.45,1.45,1.06,1.9,1.83l-1.8,1.05c-.26-.48-.64-.85-1.12-1.11-.49-.27-1.03-.4-1.64-.4-1.03,0-1.86.32-2.5.97-.63.65-.95,1.49-.95,2.52s.32,1.86.95,2.5c.63.65,1.46.97,2.5.97.61,0,1.16-.13,1.65-.4.49-.27.86-.63,1.11-1.1l1.8,1.05c-.45.77-1.09,1.38-1.9,1.83-.81.45-1.7.67-2.67.67Z"/><path class="cls-1" d="M42.3,143.53h4.05v2h-6.14v-10.62h2.09v8.62Z"/><path class="cls-1" d="M47.69,134.92h2.09v10.62h-2.09v-10.62Z"/><path class="cls-1" d="M58.05,134.92h2.09v10.62h-1.59l-4.55-6.49v6.49h-2.09v-10.62h1.59l4.55,6.47v-6.47Z"/><path class="cls-1" d="M62.26,134.92h2.09v10.62h-2.09v-10.62Z"/><path class="cls-1" d="M82.6,145.75c-1.18,0-2.15-.33-2.91-1-.76-.67-1.14-1.56-1.14-2.68v-7.14h2.08v6.98c0,.56.16,1,.48,1.32.32.32.82.49,1.49.49s1.18-.16,1.49-.49c.32-.32.48-.76.48-1.32v-6.98h2.09v7.14c0,1.12-.38,2.02-1.14,2.68-.76.67-1.73,1-2.93,1Z"/><path class="cls-1" d="M90.79,143.53h4.47v2h-6.57v-10.62h6.49v2h-4.4v2.26h4.02v1.97h-4.02v2.38Z"/><path class="cls-1" d="M75.72,143.8c.87-1.01,1.3-2.2,1.3-3.58,0-1.55-.54-2.86-1.62-3.92-1.08-1.07-2.38-1.6-3.91-1.6s-2.83.53-3.9,1.6c-1.07,1.07-1.61,2.37-1.61,3.92s.54,2.85,1.61,3.92c1.07,1.07,2.37,1.6,3.9,1.6.56,0,1.09-.08,1.6-.23l-1.57-1.6h-.03c-2.01,0-3.64-1.63-3.64-3.64s1.63-3.64,3.64-3.64,3.64,1.63,3.64,3.64c0,1.55-.97,2.88-2.33,3.4l1.36,1.39s0,0,0,0l1.95,2,2.76-.05-3.16-3.21Z"/></g><g><path class="cls-1" d="M28.79,150.08h4.19v18.78h-4.19v-18.78Z"/><path class="cls-1" d="M58.03,150.08v18.78h-4.16v-12.18l-5.99,8.71-.49.02-5.97-8.68v12.13h-4.19v-18.78h4.31l6.09,8.87,6.06-8.87h4.33Z"/><path class="cls-1" d="M66.47,165.31h8.96v3.54h-13.15v-18.78h12.99v3.54h-8.8v4h8.05v3.49h-8.05v4.21Z"/><path class="cls-1" d="M90.97,150.08h4.19v18.78h-3.19l-9.11-11.48v11.48h-4.19v-18.78h3.18l9.11,11.44v-11.44Z"/></g></g></g></g></svg>