<?xml version="1.0" encoding="UTF-8"?><svg id="Layer_2" data-name="Layer 2" xmlns="http://www.w3.org/2000/svg" viewBox="0 0 400.94 83.59"><defs><style> .cls-1 { fill: #494949; } </style></defs><g id="Layer_1-2" data-name="Layer 1"><g><polygon class="cls-1" points="123.16 55.3 126.06 55.3 126.06 65.46 132.34 65.46 132.34 67.82 123.16 67.82 123.16 55.3"/><path class="cls-1" d="M156.6,65.14h-5.82l-1.11,2.69h-2.97l5.58-12.53h2.86l5.6,12.53h-3.04l-1.11-2.69ZM155.69,62.94l-1.98-4.8-1.99,4.8h3.97Z"/><path class="cls-1" d="M187.82,64.41c0,2.17-1.72,3.41-5,3.41h-6.48v-12.52h6.12c3.13,0,4.74,1.3,4.74,3.25,0,1.26-.64,2.23-1.66,2.76,1.39.45,2.29,1.52,2.29,3.1M179.22,57.48v2.95h2.88c1.41,0,2.18-.5,2.18-1.49s-.77-1.46-2.18-1.46h-2.88ZM184.91,64.1c0-1.06-.8-1.56-2.3-1.56h-3.38v3.1h3.38c1.5,0,2.3-.47,2.3-1.54"/><path class="cls-1" d="M203.52,61.56c0-3.72,2.89-6.47,6.86-6.47s6.85,2.74,6.85,6.47-2.91,6.47-6.85,6.47-6.86-2.76-6.86-6.47M214.29,61.56c0-2.38-1.68-4.01-3.91-4.01s-3.92,1.63-3.92,4.01,1.69,4.01,3.92,4.01,3.91-1.63,3.91-4.01"/><path class="cls-1" d="M241.67,67.82l-2.41-3.49h-2.67v3.49h-2.89v-12.53h5.41c3.34,0,5.44,1.74,5.44,4.54,0,1.88-.95,3.26-2.58,3.96l2.81,4.02h-3.12ZM238.95,57.66h-2.36v4.36h2.36c1.78,0,2.67-.82,2.67-2.19s-.89-2.18-2.67-2.18"/><path class="cls-1" d="M269.37,65.14h-5.82l-1.11,2.69h-2.97l5.59-12.53h2.85l5.6,12.53h-3.04l-1.11-2.69ZM268.46,62.94l-1.98-4.8-1.99,4.8h3.97Z"/><polygon class="cls-1" points="291.08 57.66 287.08 57.66 287.08 55.3 297.98 55.3 297.98 57.66 293.97 57.66 293.97 67.82 291.08 67.82 291.08 57.66"/><path class="cls-1" d="M312.86,61.56c0-3.72,2.9-6.47,6.86-6.47s6.85,2.74,6.85,6.47-2.91,6.47-6.85,6.47-6.86-2.76-6.86-6.47M323.63,61.56c0-2.38-1.68-4.01-3.91-4.01s-3.92,1.63-3.92,4.01,1.69,4.01,3.92,4.01,3.91-1.63,3.91-4.01"/><rect class="cls-1" x="343.02" y="55.3" width="2.9" height="12.53"/><path class="cls-1" d="M371.16,67.82l-2.41-3.49h-2.67v3.49h-2.89v-12.53h5.42c3.34,0,5.43,1.74,5.43,4.54,0,1.88-.95,3.26-2.58,3.96l2.81,4.02h-3.12ZM368.45,57.66h-2.36v4.36h2.36c1.78,0,2.67-.82,2.67-2.19s-.89-2.18-2.67-2.18"/><polygon class="cls-1" points="400.32 65.5 400.32 67.82 390.62 67.82 390.62 55.29 400.08 55.29 400.08 57.63 393.5 57.63 393.5 60.35 399.32 60.35 399.32 62.6 393.5 62.6 393.5 65.5 400.32 65.5"/><path class="cls-1" d="M154.11,33.03c0,9.89-7.34,17.47-16.98,17.47h-13.97V15.56h13.97c9.64,0,16.98,7.58,16.98,17.47M146.42,33.03c0-5.99-3.8-9.78-9.29-9.78h-5.98v19.56h5.98c5.49,0,9.29-3.79,9.29-9.78"/><polygon class="cls-1" points="183.56 42.81 183.56 50.5 161.59 50.5 161.59 15.55 183.31 15.55 183.31 23.24 169.58 23.24 169.58 29.03 182.05 29.03 182.05 36.62 169.58 36.62 169.58 42.81 183.56 42.81"/><path class="cls-1" d="M202.83,39.01h-3.8v11.49h-7.98V15.56h13.98c6.63,0,11.98,5.34,11.98,11.98,0,4.3-2.6,8.19-6.43,10.13l7.43,12.83h-8.59l-6.58-11.49ZM199.03,32.03h5.99c2.2,0,3.99-1.94,3.99-4.49s-1.8-4.49-3.99-4.49h-5.99v8.98Z"/><polygon class="cls-1" points="259.68 50.5 251.69 50.5 251.69 30.18 242.66 45 241.76 45 232.72 30.18 232.72 50.5 224.74 50.5 224.74 15.56 232.72 15.56 242.21 31.08 251.69 15.56 259.68 15.56 259.68 50.5"/><rect class="cls-1" x="268.67" y="15.56" width="7.98" height="34.94"/><polygon class="cls-1" points="306.1 42.81 306.1 50.5 285.64 50.5 285.64 15.55 293.62 15.55 293.62 42.81 306.1 42.81"/><polygon class="cls-1" points="324.82 37.07 324.82 50.5 316.84 50.5 316.84 37.07 305.1 15.56 314.19 15.56 320.83 29.04 327.47 15.56 336.55 15.56 324.82 37.07"/><polygon class="cls-1" points="369.99 15.56 369.99 50.5 364 50.5 350.52 31.52 350.52 50.5 342.54 50.5 342.54 15.56 348.53 15.56 362.01 34.53 362.01 15.56 369.99 15.56"/><polygon class="cls-1" points="400.94 42.81 400.94 50.5 378.98 50.5 378.98 15.55 400.7 15.55 400.7 23.24 386.97 23.24 386.97 29.03 399.44 29.03 399.44 36.62 386.97 36.62 386.97 42.81 400.94 42.81"/><path class="cls-1" d="M31.78,43.94c-4.08,3.33-5.8,7.36-5.42,12.83.39,5.64,3.87,9.2,9.04,10.99,5.1,1.77,10.4-.7,14.38-4.75,7.06-7.16,13.35-15.26,19.56-23.25,4.67-6,9.3-8.19,17.82-8.19,3.08,0,5.15.06,7.18.06,6.33,0,10.3,5.07,8.92,11.24-5.57,24.86-27.85,41.64-53.7,40.69C25.9,82.68,5.77,66.33.38,43.62c-1.61-6.76,1.99-11.86,8.83-11.97,8.3-.13,25.79-.08,33.66-.05,1.34,0,1.93,1.69.89,2.53-3.51,2.87-9.13,7.47-11.99,9.8"/><path class="cls-1" d="M48.47,29.06c4.54-3.75,9.06-7.5,13.62-11.22,6.07-4.95,12.06-10,18.32-14.7.99-.75,6.57-5.22,11.03-1.95,5.59,4.1,2,8.94,1.41,9.72-4.61,6.12-9.69,11.9-14.82,17.62-1.26,1.4-3.31,3.08-5.04,3.08-8.29,0-15.76,0-23.62,0-1.34,0-1.95-1.69-.91-2.54"/></g></g></svg>