<?xml version="1.0" encoding="UTF-8"?><svg id="Layer_2" data-name="Layer 2" xmlns="http://www.w3.org/2000/svg" viewBox="0 0 157.12 194.15"><defs><style> .cls-1 { fill: #494949; } </style></defs><g id="Layer_1-2" data-name="Layer 1"><g><g><path class="cls-1" d="M18.6,193.77l-3.55-6.18h-2.04v6.18h-4.3v-18.8h7.52c1.79,0,3.31.63,4.57,1.88,1.25,1.25,1.88,2.78,1.88,4.57,0,1.15-.32,2.21-.95,3.18-.64.98-1.47,1.73-2.51,2.27l4,6.9h-4.62ZM13.01,179v4.83h3.22c.59,0,1.1-.23,1.52-.7s.63-1.04.63-1.72-.21-1.25-.63-1.72-.93-.7-1.52-.7h-3.22Z"/><path class="cls-1" d="M34.2,180.34h4.03v13.43h-4.03v-1.26c-.95,1.09-2.28,1.64-4,1.64s-3.29-.68-4.54-2.05-1.88-3.05-1.88-5.04.63-3.67,1.88-5.04,2.77-2.05,4.54-2.05,3.05.55,4,1.64v-1.26ZM28.7,189.45c.59.59,1.36.89,2.31.89s1.72-.29,2.31-.89c.59-.59.89-1.39.89-2.39s-.3-1.8-.89-2.39c-.59-.59-1.36-.89-2.31-.89s-1.72.29-2.31.89c-.59.59-.89,1.39-.89,2.39s.3,1.8.89,2.39Z"/><path class="cls-1" d="M47.63,194.15c-2.04,0-3.74-.68-5.09-2.04-1.35-1.36-2.03-3.04-2.03-5.05s.68-3.69,2.03-5.05c1.35-1.36,3.05-2.04,5.09-2.04,1.29,0,2.48.31,3.56.94,1.08.63,1.92,1.46,2.51,2.5l-3.52,2.04c-.48-1-1.35-1.5-2.61-1.5-.88,0-1.6.29-2.18.87-.57.58-.86,1.33-.86,2.24s.29,1.66.86,2.24c.57.58,1.3.87,2.18.87,1.27,0,2.14-.5,2.61-1.5l3.52,2.01c-.59,1.06-1.42,1.9-2.5,2.52-1.07.63-2.27.94-3.57.94Z"/><path class="cls-1" d="M59.06,178.45c-.47.47-1.04.71-1.71.71s-1.23-.24-1.71-.71-.71-1.04-.71-1.71.24-1.23.71-1.71,1.04-.71,1.71-.71,1.23.24,1.71.71c.47.47.71,1.04.71,1.71s-.24,1.23-.71,1.71ZM55.34,193.77v-13.43h4.03v13.43h-4.03Z"/><path class="cls-1" d="M70.2,179.97c1.43,0,2.63.49,3.59,1.48.96.98,1.44,2.35,1.44,4.08v8.25h-4.03v-7.66c0-.79-.22-1.39-.66-1.81-.44-.42-1-.63-1.68-.63-.77,0-1.38.23-1.83.7-.45.47-.67,1.16-.67,2.07v7.33h-4.03v-13.43h4.03v1.26c.81-1.09,2.09-1.64,3.84-1.64Z"/><path class="cls-1" d="M81.59,188.67c.46,1.25,1.54,1.88,3.22,1.88,1.09,0,1.95-.34,2.58-1.02l3.22,1.85c-1.33,1.84-3.28,2.77-5.86,2.77-2.26,0-4.06-.67-5.41-2.01-1.35-1.34-2.03-3.04-2.03-5.08s.67-3.71,2-5.06c1.33-1.35,3.05-2.03,5.14-2.03,1.95,0,3.58.68,4.88,2.03,1.3,1.35,1.95,3.04,1.95,5.06,0,.57-.05,1.11-.16,1.61h-9.54ZM81.51,185.66h5.78c-.39-1.41-1.34-2.12-2.85-2.12s-2.53.71-2.93,2.12Z"/><path class="cls-1" d="M104.71,189.64h6.72v4.14h-11.01v-18.8h4.3v14.67Z"/><path class="cls-1" d="M122.82,180.34h4.03v13.43h-4.03v-1.26c-.95,1.09-2.28,1.64-4,1.64s-3.29-.68-4.54-2.05c-1.25-1.37-1.88-3.05-1.88-5.04s.63-3.67,1.88-5.04c1.25-1.37,2.77-2.05,4.54-2.05s3.05.55,4,1.64v-1.26ZM117.31,189.45c.59.59,1.36.89,2.31.89s1.72-.29,2.31-.89c.59-.59.89-1.39.89-2.39s-.29-1.8-.89-2.39c-.59-.59-1.36-.89-2.31-.89s-1.72.29-2.31.89c-.59.59-.89,1.39-.89,2.39s.3,1.8.89,2.39Z"/><path class="cls-1" d="M137.83,179.97c1.77,0,3.29.68,4.54,2.05,1.25,1.37,1.88,3.05,1.88,5.04s-.63,3.67-1.88,5.04c-1.25,1.37-2.77,2.05-4.54,2.05s-3.05-.55-4-1.64v1.26h-4.03v-18.8h4.03v6.63c.95-1.09,2.28-1.64,4-1.64ZM134.73,189.45c.6.59,1.37.89,2.3.89s1.7-.29,2.3-.89c.6-.59.9-1.39.9-2.39s-.3-1.8-.9-2.39c-.6-.59-1.37-.89-2.3-.89s-1.7.29-2.3.89c-.6.59-.9,1.39-.9,2.39s.3,1.8.9,2.39Z"/></g><path class="cls-1" d="M10.13,41c-.22-.53-.18-1.13.1-1.63,1.12-1.95,2.31-3.86,3.58-5.7.51-.74,1.5-1,2.32-.61,4.33,2.05,9.44,6.77,11.95,12.62l.02.05c2.82,5.9,8.09,11.47,14.09,14.9,3.39,1.94,8.04,3.8,13.41,3.8,2.72,0,5.63-.48,8.65-1.66,6.29-1.94,11.42-6.57,14.45-13.05,2.77-5.92,3.58-12.99,2.23-19.36-.6-3.17-1.32-5.94-2.02-8.61-1.97-7.59-2.6-9.91-1.54-15.94.35-1.97,1.01-3.48,2.61-3.77,2.01-.37,3.66.35,4.21,1.8,4.01,10.63,4.18,21.57,3.06,35.83-.01.08-.02.15-.03.23-2.62,13.82-8.93,23.17-19.1,28.41-8.53,4.4-18.93,5.53-29.1,5.82-1.06.03-1.94-.81-1.97-1.86-.02-6.44-6.63-11.72-13.63-17.3-5.53-4.41-11.22-8.96-13.29-13.94M20.01,32.03c4.65,3.06,8.69,8.07,10.61,12.53,4.83,10.05,18.85,21.06,32.67,15.61l.1-.04c12.19-3.72,17.18-18.07,14.82-29.23-.59-3.11-1.3-5.83-1.98-8.46-1.65-6.37-3.04-11.72-1.6-18.1.54-2.38-1.44-4.56-3.86-4.32-1.13.11-2.26.25-3.38.41-1.09.16-2.07.82-2.59,1.8-2.84,5.39-.12,11.67,2.74,18.28,2.52,5.82,5.12,11.84,4.28,17.86-.39,5.17-3.89,10.04-9.16,12.71-2.53,1.29-5.17,1.93-7.75,1.93-2.9,0-5.74-.8-8.31-2.41-3.98-2.53-6.54-6.67-9.25-11.06-3.27-5.31-6.65-10.77-12.89-14.38-1.47-.85-3.34-.58-4.47.68-.25.28-.5.57-.75.85-1.43,1.64-1.04,4.14.78,5.34M27.8,24c5.64,3.92,8.94,9.25,11.92,14.08,2.54,4.11,4.93,7.99,8.37,10.17,3.99,2.5,8.85,2.63,13.32.36,4.35-2.21,7.36-6.33,7.65-10.49v-.1c.76-5.26-1.69-10.93-4.06-16.41-2.21-5.12-4.48-10.35-4.15-15.35.15-2.36-2.16-4.12-4.43-3.46-1.18.35-2.34.72-3.49,1.11-1.22.42-2.14,1.48-2.31,2.77-.72,5.58,1.93,8.9,4.94,12.67,2.23,2.79,4.53,5.67,5.57,9.65l.02.06c.91,4.29-.42,8.08-3.45,9.89-1.14.68-2.42,1.02-3.75,1.02-2.25,0-4.65-.95-6.81-2.79l-.08-.08c-3.21-3.22-4.51-6.83-5.66-10.02-2.85-7.91-6.1-9.43-10.33-10.05-.99-.15-2,.13-2.77.78-.27.22-.53.44-.79.67-1.74,1.48-1.58,4.19.3,5.49M37.55,16.61c3.86,2.4,5.17,6.02,6.44,9.55,1.07,2.98,2.18,6.06,4.82,8.79.1.11.22.21.34.31,2.45,1.98,5.16,2.49,7.12,1.32,1.98-1.18,2.81-3.82,2.17-6.9-.89-3.4-2.91-5.92-5.04-8.59-2.45-3.06-4.95-6.19-5.54-10.58-.3-2.2-2.64-3.5-4.61-2.5-1.93.97-3.8,2.02-5.64,3.14-2.03,1.24-2.06,4.2-.05,5.45M120.83,87.51c-1.91-.52-3.85-.84-5.81-.93-7.23-.32-13.13-2.97-17.53-7.87-.36-.4-.7-.81-1.04-1.23-.34-.43-1.03-.13-.96.41,1.03,8.61,6.06,11.27,12.54,14.69,3.23,1.71,6.76,3.57,10.18,6.37.37.3.91.02.88-.46-.26-3.66.43-7.14,2.07-10.19.17-.31.01-.7-.33-.79M91.72,13.15c8.84,8.7,9.43,18.12,9.39,28.8-.02,5.43-.04,11.05,1.07,16.98.59,3.15,4.91,12.14,11.63,14.64,11.52,4.3,16.63-.48,22.55-6,4.23-3.95,8.96-8.35,16.46-9.34.89-.12,1.46-.98,1.22-1.84-.91-3.14-2.01-6.19-3.28-9.15-.37-.87-1.46-1.16-2.21-.58-1.99,1.53-3.85,3.22-5.54,5.05-2.45,2.66-3.85,4.72-5.08,6.53-1.52,2.24-2.84,4.17-5.45,6.14-2.9,2.2-5.93,3.29-9.17,3.29-1.47,0-2.99-.23-4.55-.67l-.09-.03c-13.02-4.74-13.02-16.41-13.02-28.75,0-12.84-.01-27.38-14.58-37.44-.18-.13-.39-.21-.61-.24-1.05-.16-1.9.83-1.58,1.85.98,3.13,1.64,9.55,2.87,10.77M126.7,38.9c1.7.45,3.62-.48,4.78-2.3.87-1.36.93-3.27.99-5.48.06-2.04.13-4.28.83-6.59.38-1.28-.03-2.66-1-3.57-.05-.05-.11-.1-.16-.15-2.09-1.95-5.47-.77-5.98,2.05-.27,1.49-.65,2.88-1.02,4.2-.68,2.45-1.32,4.76-1.23,7.4.12,2.38,1.14,4.01,2.78,4.44M123.03,52.98c.17.07.35.13.53.16,5.6,1.16,8.2-2.81,11.76-9.43,1.7-3.16,3.45-6.4,5.89-8.7,1.03-.97,1.18-2.55.34-3.68-.46-.61-.92-1.22-1.4-1.82-1.59-2-4.82-.92-4.9,1.64,0,.02,0,.04,0,.06-.08,2.51-.15,4.89-1.43,6.89-1.49,2.33-3.87,3.69-6.26,3.69-.53,0-1.06-.07-1.57-.2-2.85-.75-4.66-3.37-4.84-7-.11-3.09.62-5.72,1.33-8.26,1.01-3.65,1.97-7.12.64-11.98-.18-.64-.58-1.2-1.13-1.57-.47-.31-.95-.62-1.42-.93-2.11-1.34-4.79.56-4.2,2.99,1.39,5.73.86,11.88.37,17.59-.83,9.64-1.49,17.28,6.31,20.56M108.4,38.22c0,12.24,0,21.93,10.97,26.06.12.04.24.08.36.12,5.35,1.45,8.87-.57,11.06-2.22,2.25-1.7,3.33-3.29,4.83-5.49,1.22-1.8,2.75-4.04,5.33-6.85,1.73-1.88,3.62-3.62,5.65-5.21,1.26-.98,1.61-2.74.84-4.14-.2-.37-.41-.73-.61-1.1-1.17-2.05-4.07-2.24-5.48-.35-1.33,1.77-2.47,3.9-3.59,5.99-2.82,5.24-5.97,11.1-12.34,11.1-.89,0-1.85-.12-2.88-.36l-.18-.06c-10.09-3.95-9.28-13.46-8.41-23.52.84-9.81,1.72-19.94-6.66-27.09h0s-.03-.01-.03-.01c-2.91-1.14-5.57,2.01-4.02,4.72,5.13,8.97,5.14,19.11,5.14,28.42M79.29,139.64c-.2-.33-.7-.28-.83.08-.07.19-.13.38-.18.57-.41,1.5.03,2.64.62,4.22.64,1.69,1.43,3.79,1.3,6.82-.05,1.15-.17,2.3-.35,3.44-.17,1.06.65,2.02,1.72,1.98,2.45-.09,4.88-.3,7.27-.62,1.05-.14,1.42-1.45.61-2.14-3.78-3.19-8.58-11.8-10.17-14.36M40.38,122.21c1.13-.91.44-2.73-1-2.65-1.94.1-4.11,1.51-7.12,3.59-3.12,2.15-6.75,4.66-11.1,5.35-1.15.18-1.64,1.59-.86,2.45,2.84,3.13,5.92,6.03,9.22,8.67.93.75,2.34.12,2.4-1.07.4-7.65,3.76-12.56,8.46-16.34M115.16,145.36c-3.2-1.43-6.08-3.26-8.61-5.49-2.87-2.53-4.43-4.81-5.82-6.83-1.66-2.42-2.97-4.34-6.08-6.12-2.67-1.54-7.99-3.84-13.64-1.98-.06.02-.12.04-.18.06-.62.22-.98.88-.83,1.52.39,1.71.84,3.38,1.35,5,.2.63.85.99,1.51.88h.01c5.84-1.02,10.07,3.42,14.55,8.13,3.27,3.43,6.94,7.28,11.71,9.6.34.17.75.17,1.1.02,1.7-.75,3.37-1.56,5.01-2.43.96-.51.91-1.9-.08-2.35M104.21,150.43c-3.42-2.37-6.23-5.31-8.79-8-3.22-3.38-5.93-6.23-8.94-7.12-.49-.15-1.36-.17-2.14-.15-.84.02-1.43.86-1.13,1.65,3.42,9.06,12.14,15.71,14.28,17.24.3.21.68.28,1.03.19,1.82-.48,3.62-1.02,5.39-1.63.95-.33,1.13-1.6.3-2.18M124.49,140.53c-4.19-2.27-6.79-6.05-9.14-9.47-2.09-3.05-4.07-5.92-6.88-7.52-2.73-1.55-5.83-2.12-9.11-2.73-6.05-1.12-12.79-2.38-19.91-9.58-.51-.52-1.4-.12-1.36.61.14,3.35.47,6.65.99,9.85.08.49.59.78,1.06.62h.01c6.69-2.2,12.84.44,15.91,2.2,3.65,2.1,5.27,4.46,6.99,6.96,1.35,1.97,2.75,4.01,5.36,6.32,3.35,2.96,7.39,5.17,12.01,6.59.23.07.48.03.68-.1,1.19-.77,2.36-1.57,3.51-2.4.47-.35.41-1.07-.1-1.35M45.51,125.65c-.08-1-1.27-1.51-2.07-.9-5.34,4.09-8.54,9.41-7.47,18.96.04.39.27.75.6.96.33.21.66.42,1,.62.86.53,1.98-.1,1.97-1.12-.06-4.92,1.96-8.67,3.67-11.86,1.38-2.57,2.47-4.6,2.3-6.66M75.61,139.56c.32-1.19.88-2.32,1.59-3.31.22-.32.27-.72.14-1.08-.52-1.5-1.01-3.06-1.44-4.67-.29-1.06-1.69-1.23-2.24-.27-1.55,2.72-1.57,6.03-1.58,9.78-.02,4.61-.04,9.71-3.14,14.44-.5.77-.03,1.79.88,1.89,1.91.21,3.83.36,5.78.43.59.02,1.11-.39,1.23-.97.33-1.51.54-3.04.6-4.58.11-2.47-.52-4.12-1.12-5.72-.66-1.75-1.35-3.57-.7-5.93M51.6,130.91c2.33-5,4.35-9.32,2.97-12.35-.05-.09-.1-.17-.15-.25-.08.04-.15.08-.23.12-1.95,1.01-3.83,1.99-5.6,2.99-.71.4-1,1.25-.73,2.01,1.3,3.67-.47,6.98-2.21,10.2-2.01,3.73-4.25,7.93-2.93,13.86.11.49.43.91.88,1.14.33.16.66.32.99.48,1.13.54,2.46-.34,2.37-1.6-.43-5.78,2.22-11.45,4.63-16.61M61.13,130.06c2.85-6.04,5.57-11.82,5.11-17.09-.06-.65-.8-1-1.35-.65-1.93,1.24-5.72,3.67-7.21,4.62-.35.22-.49.65-.35,1.04,1.47,4.08-.81,8.96-3.22,14.1-2.99,6.41-6.08,13.03-3.36,19.38.1.22.28.4.51.48,1.41.52,2.83,1.01,4.27,1.45.71.22,1.35-.47,1.09-1.16-2.62-7.04.99-14.71,4.51-22.17M14.12,60.91c4.26,2.79,8.67,5.66,8.75,11.41,0,0,0,.01,0,.02.03,1.03.85,1.86,1.88,1.86,1.19,0,2.4,0,3.63,0,1.33,0,2.67,0,4.03,0,1.03,0,1.89-.84,1.87-1.87,0-.02,0-.04,0-.05-.01-5.14-6.12-10.01-12.59-15.17-4.38-3.49-8.85-7.07-11.79-11.04-.86-1.17-2.65-.97-3.24.36-.59,1.32-1.14,2.67-1.66,4.03-.17.46-.16.97.03,1.42,1.79,4.24,5.49,6.68,9.09,9.03M107.37,114.15c-9.52-2.52-20.06-5.32-27.28-14.13-.58-.7-1.72-.35-1.79.56-.12,1.48-.2,2.96-.25,4.45,0,.24.07.48.22.67,7.72,9.8,14.76,11.12,21.59,12.38,3.52.65,6.84,1.27,9.97,3.04,3.37,1.91,5.62,5.19,7.8,8.36,2.73,3.98,5.33,7.76,10.01,9.44.33.12.7.04.97-.18,1.17-.97,2.31-1.97,3.42-3.01.24-.22.36-.55.32-.88-1.94-14.6-12.63-17.44-24.98-20.71M71.29,96.45c-3.29,2.38-6.65,3.5-9.76,4.54-4.42,1.48-8.33,2.79-11.72,7.14-.56.72-.34,1.77.46,2.19,1.32.69,2.53,1.59,3.63,2.71.45.46,1.15.57,1.71.27,2.64-1.4,5.29-2.9,7.82-4.64,4.03-2.77,7.85-7.43,9.87-10.12.16-.21.25-.46.28-.71,0-.01,0-.03,0-.04.13-1.25-1.27-2.08-2.3-1.34M75.1,88.27c.96-4.5,2.24-8.81,3.84-12.8.9-2.19,1.74-4.43,2.5-6.73.74-2.22-1.93-3.94-3.67-2.38-1.2,1.07-2.47,2.06-3.82,2.98-.41.28-.73.69-.89,1.16-6.9,20.56-15.28,23.56-28.74,28.37-3.11,1.11-6.63,2.37-10.45,3.97-3.33,1.4-6.09,3.91-7.89,6.94-1.17,1.97,1.04,4.2,3.04,3.11.64-.35,1.29-.72,1.96-1.1l.12-.06c5.11-2.3,9.61-3.29,13.5-2.99.82.06,1.6-.31,2.06-.99,4.13-6.09,9.13-7.77,13.99-9.39,4.96-1.66,9.67-3.24,14.07-9.23.19-.25.31-.55.38-.86M73.69,125.84c.57-.51.86-1.27.73-2.03-.05-.29-.1-.59-.15-.89-.68-4.1-1.07-8.33-1.17-12.58-.05-1.89-2.29-2.85-3.67-1.56-.02.02-.03.03-.05.05-.56.52-.8,1.3-.64,2.06,1.39,6.6-1.89,13.57-5.09,20.35-3.95,8.38-7.68,16.31-2.76,23.01.32.44.79.75,1.32.86.35.08.71.15,1.07.22.75.15,1.54-.11,2.04-.69,3.95-4.51,3.98-9.65,4-14.65.02-5.08.05-10.29,4.39-14.16M128.3,96.07c.02-.13.06-.25.11-.37.22-.46.83-1.72,1.38-2.73.35-.63.11-1.43-.54-1.75-1.29-.65-2.89-1.29-3.99-1.72-.71-.28-1.51.14-1.69.88-.68,2.74-1.96,9-.65,13.11.05.15.13.29.23.41,3.6,4.38,6.83,10.43,9.13,19.23.03.12.09.24.16.35,1.16,1.79,2.11,3.84,2.8,6.23.28.97,1.51,1.25,2.18.5,1.22-1.38,2.4-2.81,3.52-4.28.15-.2.25-.45.27-.7.4-6.41-2.87-9.8-6.33-13.39-3.79-3.92-7.71-7.97-6.58-15.76M157.11,77.06c-.02-1.2-1.42-1.8-2.32-1.01-4.47,3.94-9.36,4.43-17.09,4.83-.05,0-.09,0-.14.01-3.44.48-6.47,1.6-8.92,3.24-.87.58-.77,1.91.17,2.37,1.26.62,2.53,1.32,3.8,2.11.42.26.96.29,1.39.04,3.2-1.77,6.89-1.47,10.51-1.17,3.93.32,7.98.65,11.68-1.69.37-.24.62-.63.66-1.07.18-2.15.27-4.32.27-6.51,0-.39,0-.78,0-1.16M134.03,94.37c-.69-.53-1.7-.36-2.13.4-.26.45-.51.95-.76,1.49-.06.13-.1.28-.12.43-.83,6.29,2.27,9.51,5.86,13.21,2.35,2.43,4.9,5.08,6.23,8.78.41,1.16,1.97,1.34,2.61.28,1.2-1.97,2.32-4,3.34-6.08.22-.44.2-.95-.05-1.37-3.66-6.21-8.89-12.45-14.98-17.14M154.49,89.66c-3.48,1.15-6.99.86-10.21.6-2.14-.18-4.11-.34-5.91-.09-1.05.14-1.4,1.47-.58,2.14,4.27,3.44,8.47,7.91,12.26,13.57.55.82,1.79.68,2.13-.24,1.75-4.68,3.06-9.58,3.89-14.63.15-.9-.72-1.62-1.58-1.33M21.93,86.49c2.81-1.86,5.46-3.62,7.57-5.47,1.16-1.02.45-2.93-1.1-2.93h-.04c-2.12,0-4.2,0-6.2.01-.51,0-.99.24-1.29.64-1.71,2.28-4.33,4.01-7.03,5.79-3.9,2.57-8.3,5.47-11.57,10.66-.24.38-.31.84-.21,1.28.39,1.64.83,3.25,1.32,4.85.46,1.51,2.54,1.58,3.15.13,2.79-6.6,9.34-10.94,15.39-14.95M3.76,88.87c2.82-2.89,5.89-4.91,8.55-6.66.02-.01.04-.03.07-.04,1.69-1.11.7-3.73-1.31-3.48-4.22.53-7.73,1.52-10.2,3.36-.51.38-.79,1.01-.75,1.65.09,1.37.22,2.73.39,4.09.19,1.58,2.14,2.23,3.25,1.09M108.37,110.4s.03,0,.04.01c1.56.41,2.77-1.39,1.78-2.66-3.38-4.36-7.33-6.53-11.18-8.65-5.45-3-11.04-6.08-14.61-14.95-.6-1.5-2.76-1.39-3.2.17-.64,2.25-1.18,4.56-1.63,6.91-.07.37-.02.75.15,1.08,6.09,12.11,17.55,15.15,28.65,18.09M2.56,76.74c4.26-1.69,9.65-2.27,15.72-2.46,1.01-.03,1.85-.87,1.82-1.88,0,0,0-.01,0-.02-.06-4.3-3.34-6.44-7.49-9.16-2.35-1.54-4.89-3.2-6.97-5.44-1.02-1.1-2.84-.67-3.21.79C1.06,63.83.24,69.29,0,74.91c-.06,1.35,1.3,2.33,2.55,1.83M84.71,75.03c2.67,14.48,8.7,17.81,15.63,21.63,5.61,3.09,11.4,6.28,15.71,15.44.16.35.47.63.84.75,2.59.87,5.08,1.88,7.37,3.17,1.21.68,2.58-.57,2-1.83-1.7-3.75-3.63-6.7-5.7-9.1h-.02s0-.02-.01-.04c-4.33-5.02-9.23-7.61-13.8-10.02-8.1-4.27-15.12-7.99-14.11-23.53.02-.23-.02-.45-.12-.66-.79-1.78-1.46-3.65-2.01-5.58-.4-1.38-2.34-1.38-2.73,0-.88,3.06-1.87,6.07-2.98,9.01-.09.24-.12.5-.07.76M43.98,118.32c.59.45,1.39.47,2.03.1,1.17-.68,2.38-1.34,3.61-1.99,1.25-.66,1.31-2.44.11-3.18-4.27-2.65-10-2.32-17.34.95-.06.03-.12.06-.17.09-5.37,3.06-10.71,5.79-16.51,6.44-1.4.16-2.12,1.75-1.3,2.89.32.45.64.89.97,1.33.28.38.7.63,1.16.72,5.59,1.09,9.94-1.9,14.15-4.81,4.29-2.97,8.72-6.01,13.3-2.54M21.1,115.34c.9-6.54,5.37-12.4,11.69-15.06,3.88-1.63,7.45-2.9,10.59-4.02,11.29-4.03,18.42-6.58,24.31-19.57.76-1.67-.89-3.46-2.61-2.82-2.78,1.03-5.66,1.82-8.61,2.4-.63.13-1.16.53-1.46,1.1-6.33,12.1-14.78,14.73-22.26,17.05-8.81,2.73-16.48,5.12-21.1,20.99-.4,1.37.66,2.73,2.08,2.69,1.96-.06,3.91-.41,5.92-1.02.78-.24,1.35-.92,1.46-1.74M31.92,91.77c6.54-2.03,12.78-3.97,18.06-11.45.9-1.27-.09-3.02-1.64-2.87-3.91.38-7.86.54-11.74.6-.6,0-1.16.31-1.49.82-2.46,3.83-6.97,6.83-11.66,9.93-7.16,4.75-14.51,9.62-15.4,18.03-.22,2.04,2.59,2.83,3.45.97,5.26-11.32,12.93-13.71,20.41-16.03M153.33,60.97c-6.72.83-10.97,4.79-15.09,8.63-4.45,4.15-9.01,8.41-16.34,8.41-2.63,0-5.61-.54-9.07-1.83-7.71-2.87-12.6-12.48-13.39-16.74-1.15-6.19-1.13-11.94-1.11-17.5.02-6.4-1.35-15-3.29-20.24-.79-2.13-3.96-1.52-3.85.74.26,5.56,1.53,13.78.59,22.94-1.09,10.75,1.88,23.26,8.59,30.73,3.73,4.15,8.58,6.31,14.81,6.59,2.31.1,4.9.55,7.65,1.41.67.21,1.4.04,1.91-.44,3.17-2.92,7.47-4.84,12.55-5.53h.11c9.52-.51,13.83-1.01,18.78-7.85.29-.4.42-.9.36-1.39-.26-2.15-.6-4.28-1.02-6.38-.21-1.01-1.18-1.68-2.21-1.55"/><g><path class="cls-1" d="M149.41,174.79c.3-.3.45-.7.45-1.18s-.15-.89-.44-1.19c-.29-.3-.72-.45-1.27-.45h-2.09v4.67h1.13v-1.4h.86l.68,1.39h1.26l-.84-1.64c.1-.06.19-.13.27-.21M147.18,172.98h.99c.17,0,.3.05.4.16.1.11.15.26.15.46s-.05.35-.15.46c-.1.11-.23.16-.4.16h-.99v-1.24Z"/><path class="cls-1" d="M151.85,171.82c-.36-.69-.87-1.22-1.55-1.58-.68-.36-1.5-.54-2.46-.54s-1.78.18-2.46.54c-.68.36-1.19.89-1.55,1.58-.36.69-.53,1.53-.53,2.5s.18,1.81.53,2.5c.35.69.87,1.22,1.55,1.59.68.36,1.5.55,2.45.55s1.77-.18,2.45-.55c.68-.36,1.2-.89,1.55-1.59.35-.69.53-1.53.53-2.5s-.18-1.81-.53-2.5M150.76,176.15c-.26.51-.64.9-1.14,1.17-.49.27-1.09.4-1.78.4s-1.29-.13-1.78-.4c-.49-.27-.87-.66-1.13-1.17-.26-.51-.39-1.12-.39-1.84s.13-1.35.39-1.87c.26-.52.64-.92,1.13-1.19.49-.27,1.09-.41,1.78-.41s1.29.14,1.78.41c.49.27.87.67,1.13,1.19.26.52.39,1.14.39,1.87s-.13,1.32-.39,1.83"/></g></g></g></svg>